<?xml version="1.0" encoding="utf-8"?>
<!-- Generator: Adobe Illustrator 18.1.1, SVG Export Plug-In . SVG Version: 6.00 Build 0)  -->
<!DOCTYPE svg PUBLIC "-//W3C//DTD SVG 1.1//EN" "http://www.w3.org/Graphics/SVG/1.1/DTD/svg11.dtd">
<svg version="1.1" id="Layer_1" xmlns="http://www.w3.org/2000/svg" xmlns:xlink="http://www.w3.org/1999/xlink" x="0px" y="0px"
	 viewBox="0 0 70 70" style="enable-background:new 0 0 70 70;" xml:space="preserve">
<polygon points="26,32 26,45 32,45 32,42 31,42 31,41 32,41 34,41 35,41 35,42 34,42 34,45 40,45 40,42 39,42 39,41 40,41 42,41 
	43,41 43,42 42,42 42,45 48,45 48,32 " fill="#33B5E5"/>
<polygon points="25,31 46,31 46,30 24,30 24,43 25,43 " fill="#33b5e5"/>
<polygon points="23,29 44,29 44,28 22,28 22,41 23,41 " fill="#33b5e5"/>
</svg>
